<svg width="148" height="80" viewBox="0 0 148 80" fill="none" xmlns="http://www.w3.org/2000/svg">
<g clip-path="url(#clip0_89_77)">
<path d="M80 40C80 43.3137 77.3137 46 74 46C70.6863 46 68 43.3137 68 40C68 36.6863 70.6863 34 74 34C77.3137 34 80 36.6863 80 40Z" fill="black"/>
<path d="M135.554 45H147.689C145.229 64.7315 128.398 80 108 80C88.8253 80 72.8029 66.5082 68.906 48.5H80.5755C84.2882 59.8082 95.4994 68 108 68C121.757 68 133.196 58.0782 135.554 45Z" fill="black"/>
<path fill-rule="evenodd" clip-rule="evenodd" d="M135.554 35C133.196 21.9218 121.757 12 108 12C95.4995 12 84.2883 20.1918 80.5756 31.5H79.0939C78.1145 26.9738 76.369 22.7329 74 18.9198C81.0564 7.56199 93.6448 0 108 0C128.398 0 145.229 15.2685 147.689 35H135.554Z" fill="black"/>
<path fill-rule="evenodd" clip-rule="evenodd" d="M67.4244 31.5H68.9061C69.8855 26.9738 71.631 22.7329 74 18.9198C66.9436 7.56199 54.3552 0 40 0C17.9086 0 0 17.9086 0 40C0 62.0914 17.9086 80 40 80C59.1746 80 75.197 66.5082 79.0939 48.5H67.4244C63.7117 59.8082 52.5005 68 40 68C24.536 68 12 55.464 12 40C12 24.536 24.536 12 40 12C52.5005 12 63.7117 20.1918 67.4244 31.5Z" fill="black"/>
<path d="M68.906 31.5C69.8854 26.9738 71.6309 22.7329 73.9999 18.9198C76.3689 22.7329 78.1144 26.9738 79.0938 31.5H68.906Z" fill="black"/>
</g>
<defs>
<clipPath id="clip0_89_77">
<rect width="148" height="80" fill="white"/>
</clipPath>
</defs>
</svg>
