<svg width="169" height="99" viewBox="0 0 169 99" fill="none" xmlns="http://www.w3.org/2000/svg">
<g clip-path="url(#clip0_89_69)">
<path d="M169 0H0V99H169V0Z" fill="black"/>
<path d="M90 50C90 53.3137 87.3137 56 84 56C80.6863 56 78 53.3137 78 50C78 46.6863 80.6863 44 84 44C87.3137 44 90 46.6863 90 50Z" fill="white"/>
<path d="M145.554 55H157.689C155.229 74.7315 138.398 90 118 90C98.8253 90 82.8029 76.5082 78.906 58.5H90.5755C94.2882 69.8082 105.499 78 118 78C131.757 78 143.196 68.0782 145.554 55Z" fill="white"/>
<path fill-rule="evenodd" clip-rule="evenodd" d="M145.554 45C143.196 31.9218 131.757 22 118 22C105.499 22 94.2883 30.1918 90.5756 41.5H89.0939C88.1145 36.9738 86.369 32.7329 84 28.9198C91.0564 17.562 103.645 10 118 10C138.398 10 155.229 25.2685 157.689 45H145.554Z" fill="white"/>
<path fill-rule="evenodd" clip-rule="evenodd" d="M77.4244 41.5H78.9061C79.8855 36.9738 81.631 32.7329 84 28.9198C76.9436 17.562 64.3552 10 50 10C27.9086 10 10 27.9086 10 50C10 72.0914 27.9086 90 50 90C69.1746 90 85.197 76.5082 89.0939 58.5H77.4244C73.7117 69.8082 62.5005 78 50 78C34.536 78 22 65.464 22 50C22 34.536 34.536 22 50 22C62.5005 22 73.7117 30.1918 77.4244 41.5Z" fill="white"/>
<path d="M78.906 41.5C79.8854 36.9738 81.6309 32.7329 83.9999 28.9198C86.3689 32.7329 88.1144 36.9738 89.0938 41.5H78.906Z" fill="white"/>
</g>
<defs>
<clipPath id="clip0_89_69">
<rect width="169" height="99" fill="white"/>
</clipPath>
</defs>
</svg>
