<svg width="1124" height="489" viewBox="0 0 1124 489" fill="none" xmlns="http://www.w3.org/2000/svg">
<g clip-path="url(#clip0_101_64)">
<path d="M524.648 446.631C525.526 449.601 526 452.745 526 456C526 460.296 525.178 464.399 523.685 468.163L523.663 468.656L523.521 468.564C518.578 480.557 506.776 489 493 489H287C268.775 489 254 474.225 254 456C254 437.775 268.775 423 287 423H474.335L526.928 395.694L524.648 446.631Z" fill="#4FC1FF"/>
<path d="M228.906 307.315C228.967 308.203 229 309.098 229 310C229 331.539 211.539 349 190 349H39C17.4609 349 0 331.539 0 310C0 288.461 17.4609 271 39 271H173.563L236.812 244.357L228.906 307.315Z" fill="#F3F3F3"/>
<path d="M509.5 0C532.972 0 552 19.0279 552 42.5C552 43.0846 551.984 43.6663 551.961 44.2451L559.55 117.164L487.508 85H355.5C332.028 85 313 65.9721 313 42.5C313 19.0279 332.028 7.65059e-07 355.5 0H509.5Z" fill="#28A745"/>
<path d="M869.462 352H996.5C1016.11 352 1032 367.894 1032 387.5C1032 407.106 1016.11 423 996.5 423H867.5C848.947 423 833.72 408.767 832.138 390.625L815.967 340.52L869.462 352Z" fill="#FFB454"/>
<path d="M1086 50C1106.99 50 1124 67.0132 1124 88C1124 108.987 1106.99 126 1086 126H969.564L899.366 144.97L915.059 85.9004C916.148 65.8902 932.718 50 953 50H1086Z" fill="#61AFEF"/>
<path d="M336.92 254.734V215.866L346.186 206.6H373.082L382.184 215.702V223.246H372.672V219.064L368.326 214.8H351.106L346.432 219.392V251.208L351.106 255.8H368.326L372.672 251.536V247.354H382.184V254.898L373.082 264H346.186L336.92 254.734ZM389.602 255.8V231.364L397.72 223.164H420.352L428.552 231.364V255.8L420.352 264H397.72L389.602 255.8ZM416.006 256.21L419.286 252.93V234.234L416.006 230.954H402.148L398.868 234.234V252.93L402.148 256.21H416.006ZM437.569 255.8V231.364L445.687 223.164H461.759L467.253 227.92V205.452H476.519V264H467.745V257.276L461.021 264H445.687L437.569 255.8ZM459.955 256.046L467.253 248.666V236.694L460.939 231.118H450.279L446.835 234.562V252.602L450.279 256.046H459.955ZM486.336 255.882V231.364L494.454 223.164H516.676L524.958 231.364V246.616H495.602V253.176L498.718 256.292H512.74L515.692 253.258V250.798H524.876V256.046L516.922 264H494.372L486.336 255.882ZM515.692 239.81V234.152L512.494 230.872H498.8L495.602 234.152V239.81H515.692ZM533.992 254.734V215.866L543.258 206.6H570.154L579.256 215.702V223.246H569.744V219.064L565.398 214.8H548.178L543.504 219.392V251.208L548.178 255.8H565.398L569.744 251.536V247.354H579.256V254.898L570.154 264H543.258L533.992 254.734ZM586.674 255.8V231.364L594.792 223.164H617.424L625.624 231.364V255.8L617.424 264H594.792L586.674 255.8ZM613.078 256.21L616.358 252.93V234.234L613.078 230.954H599.22L595.94 234.234V252.93L599.22 256.21H613.078ZM635.461 223.164H644.071V230.626L651.533 223.164H664.489L673.099 231.774V264H663.833V234.316L660.635 231.118H653.255L644.727 239.728V264H635.461V223.164ZM683.348 223.164H691.958V230.626L699.42 223.164H712.376L720.986 231.774V264H711.72V234.316L708.522 231.118H701.142L692.614 239.728V264H683.348V223.164ZM730.414 255.882V231.364L738.532 223.164H760.754L769.036 231.364V246.616H739.68V253.176L742.796 256.292H756.818L759.77 253.258V250.798H768.954V256.046L761 264H738.45L730.414 255.882ZM759.77 239.81V234.152L756.572 230.872H742.878L739.68 234.152V239.81H759.77ZM777.66 255.882V231.282L785.696 223.164H807.262L815.38 231.364V238.088H806.114V234.316L802.834 231.118H790.206L786.926 234.316V252.848L790.206 256.046H802.834L806.114 252.848V249.076H815.38V255.8L807.262 264H785.696L777.66 255.882ZM827.254 255.882V231.036H819.874V223.164H827.418V209.88H836.52V223.164H849.066V231.036H836.52V252.93L839.718 256.128H849.066V264H835.372L827.254 255.882Z" fill="white"/>
<path d="M964.88 98.576V75.824L970.304 70.4H986.048L991.376 75.728V80.144H985.808V77.696L983.264 75.2H973.184L970.448 77.888V96.512L973.184 99.2H983.264L985.808 96.704V94.256H991.376V98.672L986.048 104H970.304L964.88 98.576ZM995.718 99.2V84.896L1000.47 80.096H1013.72L1018.52 84.896V99.2L1013.72 104H1000.47L995.718 99.2ZM1011.17 99.44L1013.09 97.52V86.576L1011.17 84.656H1003.06L1001.14 86.576V97.52L1003.06 99.44H1011.17ZM1023.8 99.2V84.896L1028.55 80.096H1037.96L1041.17 82.88V69.728H1046.6V104H1041.46V100.064L1037.52 104H1028.55L1023.8 99.2ZM1036.9 99.344L1041.17 95.024V88.016L1037.48 84.752H1031.24L1029.22 86.768V97.328L1031.24 99.344H1036.9ZM1052.34 99.248V84.896L1057.1 80.096H1070.1L1074.95 84.896V93.824H1057.77V97.664L1059.59 99.488H1067.8L1069.53 97.712V96.272H1074.9V99.344L1070.25 104H1057.05L1052.34 99.248ZM1069.53 89.84V86.528L1067.66 84.608H1059.64L1057.77 86.528V89.84H1069.53Z" fill="black"/>
<path d="M870.36 370.4H875.928V399.248H892.824V404H870.36V370.4ZM895.703 399.248V384.896L900.455 380.096H913.463L918.311 384.896V393.824H901.127V397.664L902.951 399.488H911.159L912.887 397.712V396.272H918.263V399.344L913.607 404H900.407L895.703 399.248ZM912.887 389.84V386.528L911.015 384.608H902.999L901.127 386.528V389.84H912.887ZM923.119 399.728V394.064L927.391 389.84H939.727V386.288L937.951 384.512H930.415L928.639 386.288V387.824H923.311V385.04L928.207 380.096H940.159L945.055 385.04V404H940.111V400.304L936.271 404H927.391L923.119 399.728ZM935.743 399.728L939.727 395.888V393.872H929.983L928.447 395.36V398.288L929.887 399.728H935.743ZM951.073 380.096H956.113V384.176L960.097 380.096H966.721V384.752H961.297L956.497 389.648V404H951.073V380.096ZM970.339 380.096H975.379V384.464L979.747 380.096H987.331L992.371 385.136V404H986.947V386.624L985.075 384.752H980.755L975.763 389.792V404H970.339V380.096Z" fill="black"/>
<path d="M369.64 54.056V49.832H375.112V52.376L376.936 54.2H387.4L389.32 52.28V46.088L387.448 44.216H374.68L369.736 39.32V30.344L374.68 25.4H389.464L394.408 30.344V34.616H388.936V32.024L387.064 30.2H377.08L375.208 32.024V37.592L377.08 39.416H389.848L394.792 44.36V53.96L389.752 59H374.584L369.64 54.056ZM400.308 24.728H405.732V39.224L409.859 35.096H417.396L422.436 40.136V59H417.012V41.624L415.14 39.752H410.724L405.732 44.792V59H400.308V24.728ZM427.713 54.728V49.064L431.985 44.84H444.321V41.288L442.545 39.512H435.009L433.233 41.288V42.824H427.905V40.04L432.801 35.096H444.753L449.649 40.04V59H444.705V55.304L440.865 59H431.985L427.713 54.728ZM440.337 54.728L444.321 50.888V48.872H434.577L433.041 50.36V53.288L434.481 54.728H440.337ZM455.667 35.096H460.707V39.176L464.691 35.096H471.315V39.752H465.891L461.091 44.648V59H455.667V35.096ZM473.234 54.248V39.896L477.986 35.096H490.994L495.842 39.896V48.824H478.658V52.664L480.482 54.488H488.69L490.418 52.712V51.272H495.794V54.344L491.138 59H477.938L473.234 54.248ZM490.418 44.84V41.528L488.546 39.608H480.53L478.658 41.528V44.84H490.418Z" fill="black"/>
<path d="M39.1504 292.5H61.1104V296.955H44.3704V305.955H59.8054V310.365H44.3704V319.545H61.1104V324H39.1504V292.5ZM79.9049 324L74.4599 316.485L69.0599 324H63.3449L71.6699 312.615L63.5699 301.59H69.2849L74.4599 308.79L79.6799 301.59H85.3949L77.3399 312.705L85.6199 324H79.9049ZM88.9791 301.59H93.7041V305.1L97.2591 301.59H105.854L110.354 306.09V319.5L105.854 324H97.2141L94.0641 321.345V333.54H88.9791V301.59ZM103.469 319.635L105.269 317.88V307.71L103.469 305.955H98.0691L94.0641 309.96V316.215L97.8441 319.635H103.469ZM115.966 291.87H121.051V324H115.966V291.87ZM126.673 319.5V306.09L131.128 301.59H143.548L148.048 306.09V319.5L143.548 324H131.128L126.673 319.5ZM141.163 319.725L142.963 317.925V307.665L141.163 305.865H133.558L131.758 307.665V317.925L133.558 319.725H141.163ZM153.446 301.59H158.171V305.415L161.906 301.59H168.116V305.955H163.031L158.531 310.545V324H153.446V301.59ZM169.915 319.545V306.09L174.37 301.59H186.565L191.11 306.09V314.46H175V318.06L176.71 319.77H184.405L186.025 318.105V316.755H191.065V319.635L186.7 324H174.325L169.915 319.545ZM186.025 310.725V307.62L184.27 305.82H176.755L175 307.62V310.725H186.025Z" fill="black"/>
<path d="M294.15 436.5H316.11V440.955H299.37V449.955H314.805V454.365H299.37V463.545H316.11V468H294.15V436.5ZM320.82 445.59H325.545V449.505L329.415 445.59H334.995L338.19 448.83L341.43 445.59H348.99L353.58 450.225V468H348.495V451.71L346.74 449.955H342.555L339.945 452.565V468H334.995V451.665L333.285 449.955H330.225L325.905 454.32V468H320.82V445.59ZM359.184 445.59H363.909V449.1L367.464 445.59H376.059L380.559 450.09V463.5L376.059 468H367.419L364.269 465.345V477.54H359.184V445.59ZM373.674 463.635L375.474 461.88V451.71L373.674 449.955H368.274L364.269 453.96V460.215L368.049 463.635H373.674ZM385.496 463.5V450.09L389.951 445.59H402.371L406.871 450.09V463.5L402.371 468H389.951L385.496 463.5ZM399.986 463.725L401.786 461.925V451.665L399.986 449.865H392.381L390.581 451.665V461.925L392.381 463.725H399.986ZM410.03 445.59H415.205L418.175 461.205H418.355L422.855 445.59H427.535L431.63 461.205H431.81L435.095 445.59H440.27L434.51 468H429.605L425.195 451.755H425.015L420.29 468H415.385L410.03 445.59ZM443.416 463.545V450.09L447.871 445.59H460.066L464.611 450.09V458.46H448.501V462.06L450.211 463.77H457.906L459.526 462.105V460.755H464.566V463.635L460.201 468H447.826L443.416 463.545ZM459.526 454.725V451.62L457.771 449.82H450.256L448.501 451.62V454.725H459.526ZM469.794 445.59H474.519V449.415L478.254 445.59H484.464V449.955H479.379L474.879 454.545V468H469.794V445.59Z" fill="black"/>
</g>
<defs>
<clipPath id="clip0_101_64">
<rect width="1124" height="489" fill="white"/>
</clipPath>
</defs>
</svg>
